<?xml version="1.0" encoding="utf-8"?>
<!-- Generator: Adobe Illustrator 17.0.0, SVG Export Plug-In . SVG Version: 6.00 Build 0)  -->
<!DOCTYPE svg PUBLIC "-//W3C//DTD SVG 1.1//EN" "http://www.w3.org/Graphics/SVG/1.1/DTD/svg11.dtd">
<svg version="1.1" id="Layer_1" xmlns="http://www.w3.org/2000/svg" xmlns:xlink="http://www.w3.org/1999/xlink" x="0px" y="0px"
	 width="512px" height="512px" viewBox="0 0 512 512" enable-background="new 0 0 512 512" xml:space="preserve">
<g id="_x23_020201ff">
	<path fill="#3b5998" d="M219.017,44.969c18.349-17.472,44.448-23.373,69.069-24.109c26.039-0.234,52.067-0.093,78.106-0.082
		c0.103,27.469,0.112,54.948-0.01,82.415c-16.828-0.03-33.667,0.041-50.495-0.03c-10.671-0.665-21.628,7.424-23.567,18.002
		c-0.256,18.38-0.092,36.77-0.082,55.151c24.681,0.102,49.362-0.031,74.041,0.062c-1.807,26.589-5.105,53.057-8.975,79.423
		c-21.8,0.204-43.613-0.021-65.413,0.113c-0.194,78.422,0.102,156.845-0.153,235.267c-32.381,0.132-64.781-0.062-97.161,0.091
		c-0.613-78.433,0.05-156.905-0.337-235.348c-15.798-0.164-31.604,0.113-47.401-0.132c0.061-26.365,0.021-52.73,0.03-79.086
		c15.786-0.193,31.584,0.041,47.371-0.112c0.48-25.631-0.481-51.292,0.5-76.901C196.124,79.412,203.853,58.979,219.017,44.969z"/>
</g>
</svg>
