<?xml version="1.0" encoding="utf-8"?>
<!-- Generator: Adobe Illustrator 17.0.0, SVG Export Plug-In . SVG Version: 6.00 Build 0)  -->
<!DOCTYPE svg PUBLIC "-//W3C//DTD SVG 1.1//EN" "http://www.w3.org/Graphics/SVG/1.1/DTD/svg11.dtd">
<svg version="1.1" id="Layer_1" xmlns="http://www.w3.org/2000/svg" xmlns:xlink="http://www.w3.org/1999/xlink" x="0px" y="0px"
	 width="512px" height="512px" viewBox="0 0 512 512" enable-background="new 0 0 512 512" xml:space="preserve">
<g id="_x23_020201ff" display="none">
	<path display="inline" fill="#ff5d5d" d="M219.017,44.969c18.349-17.472,44.448-23.373,69.069-24.109
		c26.039-0.234,52.067-0.093,78.106-0.082c0.103,27.469,0.112,54.948-0.01,82.415c-16.828-0.03-33.667,0.041-50.495-0.03
		c-10.671-0.665-21.628,7.424-23.567,18.002c-0.256,18.38-0.092,36.77-0.082,55.151c24.681,0.102,49.362-0.031,74.041,0.062
		c-1.807,26.589-5.105,53.057-8.975,79.423c-21.8,0.204-43.613-0.021-65.413,0.113c-0.194,78.422,0.102,156.845-0.153,235.267
		c-32.381,0.132-64.781-0.062-97.161,0.091c-0.613-78.433,0.05-156.905-0.337-235.348c-15.798-0.164-31.604,0.113-47.401-0.132
		c0.061-26.365,0.021-52.73,0.03-79.086c15.786-0.193,31.584,0.041,47.371-0.112c0.48-25.631-0.481-51.292,0.5-76.901
		C196.124,79.412,203.853,58.979,219.017,44.969z"/>
</g>
<path display="none" fill="#ff5d5d" d="M256,25.575c-130.468,0-236.25,105.782-236.25,236.25c0,104.398,67.686,192.934,161.571,224.166
	c11.81,2.163,16.121-5.133,16.121-11.363c0-5.624-0.216-24.253-0.332-43.979c-65.695,14.275-79.582-27.859-79.582-27.859
	C106.772,375.509,91.3,368.241,91.3,368.241c-21.471-14.65,1.629-14.362,1.629-14.362c23.72,1.644,36.208,24.34,36.208,24.34
	c21.082,36.107,55.313,25.667,68.752,19.611c2.147-15.227,8.261-25.667,14.996-31.55c-52.444-5.969-107.613-26.244-107.613-116.77
	c0-25.811,9.214-46.863,24.297-63.403c-2.408-5.999-10.541-30.036,2.336-62.552c0,0,19.813-6.345,64.974,24.225
	c18.832-5.263,39.034-7.859,59.12-7.945c20.072,0.087,40.288,2.711,59.149,7.974c45.076-30.598,64.917-24.225,64.917-24.225
	c12.92,32.545,4.787,56.553,2.365,62.523c15.14,16.539,24.283,37.592,24.283,63.403c0,90.757-55.256,110.742-107.887,116.597
	c8.508,7.325,16.035,21.687,16.035,43.72c0,31.579-0.317,57.044-0.317,64.83c0,6.287,4.297,13.641,16.265,11.334
	c93.814-31.29,161.441-119.826,161.441-224.166C492.25,131.357,386.468,25.575,256,25.575z"/>
<g>
	<path fill="#ff5d5d" d="M221.904,73.613c12.379,10.071,38.188,31.158,38.188,71.339c0,39.132-22.556,57.596-45.217,75.011
		c-7.029,6.924-15.107,14.268-15.107,25.913c0,11.645,8.078,18.045,13.953,22.766l19.408,14.792
		c23.71,19.513,45.217,37.558,45.217,74.067c0,49.728-48.993,99.875-141.629,99.875C58.663,457.481,21,420.972,21,381.84
		c0-18.989,9.652-45.951,41.44-64.52c33.362-20.038,78.683-22.766,102.813-24.339c-7.554-9.547-16.156-19.618-16.156-35.984
		c0-9.022,2.728-14.268,5.35-20.667c-5.875,0.525-11.855,1.049-17.205,1.049c-57.071,0-89.384-41.754-89.384-82.984
		c0-24.339,11.33-51.301,34.516-70.815c30.739-24.759,67.353-28.955,96.413-28.955h110.891l-34.411,18.989H221.904z
		 M183.612,308.403c-4.301-0.525-7.029-0.525-12.379-0.525c-4.826,0-33.886,1.049-56.547,8.393
		c-11.855,4.196-46.266,16.891-46.266,54.449s37.138,64.52,94.734,64.52c51.721,0,79.103-24.339,79.103-57.071
		C242.257,351.206,224.527,336.939,183.612,308.403 M199.243,207.898c12.379-12.17,13.429-29.06,13.429-38.607
		c0-38.083-23.185-97.252-67.877-97.252c-13.953,0-29.06,6.819-37.663,17.415c-9.127,11.121-11.855,25.388-11.855,39.132
		c0,35.46,20.982,94.105,67.353,94.105C176.058,222.796,190.536,216.396,199.243,207.898"/>
	<polygon fill="#ff5d5d" points="491,136.769 408.855,136.769 408.855,54.729 390.286,54.729 390.286,136.769 306.672,136.769 306.672,155.443 
		390.286,155.443 390.286,240.316 408.855,240.316 408.855,155.443 491,155.443 	"/>
</g>
</svg>
