<?xml version="1.0" ?><!DOCTYPE svg  PUBLIC '-//W3C//DTD SVG 1.1//EN'  'http://www.w3.org/Graphics/SVG/1.1/DTD/svg11.dtd'><svg enable-background="new 0 0 64 64" height="64px" id="Layer_1" version="1.1" viewBox="0 0 64 64" width="64px" xml:space="preserve" xmlns="http://www.w3.org/2000/svg" xmlns:xlink="http://www.w3.org/1999/xlink"><g><path d="M14.421,10H6.263L3.943,21h8.505c6.64,0,8.53-3.267,8.53-6.204C20.979,12.726,19.719,10,14.421,10z" fill="#fff"/><path d="M30.303,43h-8.162l-2.32,11h8.501c6.643,0,8.531-3.263,8.531-6.191C36.853,45.729,35.595,43,30.303,43z"/><path d="M11.478,26H3.319L1,37h8.502c6.642,0,8.533-3.271,8.533-6.201C18.035,28.729,16.775,26,11.478,26z" fill="#fff"/><path d="M53.275,37h-8.156l-2.32,10h8.502c6.642,0,8.531-2.775,8.531-5.703C59.832,39.225,58.573,37,53.275,37z"/><path d="M56.275,20h-8.156l-2.32,10h8.502c6.642,0,8.531-2.775,8.531-5.703C62.832,22.225,61.573,20,56.275,20z" fill="#fff"/><path d="M33.454,26h-8.157l-2.323,11h8.506c6.643,0,8.53-3.271,8.53-6.201C40.01,28.729,38.747,26,33.454,26z" fill="#fff"/><path d="M36.4,10h-8.16l-2.318,11h8.5c6.645,0,8.532-3.266,8.532-6.203C42.954,12.727,41.695,10,36.4,10z" fill="#fff"/></g></svg>